<?xml version="1.0" encoding="iso-8859-1"?>
<!-- Generator: Adobe Illustrator 19.0.0, SVG Export Plug-In . SVG Version: 6.00 Build 0)  -->
<svg version="1.1" id="Capa_1" xmlns="http://www.w3.org/2000/svg" xmlns:xlink="http://www.w3.org/1999/xlink" x="0px" y="0px"
	 viewBox="0 0 496 496" style="enable-background:new 0 0 496 496;" xml:space="preserve" width="32px" height="32px">
<g>
	<g>
		<path d="M384,136c-44.112,0-80-35.888-80-80V0H192v56c0,44.112-35.888,80-80,80C50.24,136,0,186.24,0,248
			c0,136.752,111.248,248,248,248s248-111.248,248-248C496,186.24,445.76,136,384,136z M248,480C120.08,480,16,375.92,16,248
			c0-52.936,43.064-96,96-96c52.936,0,96-43.064,96-96V16h16v16h16V16h16v88.672c0,14.392-2.872,28.4-8.536,41.616l-5.624,13.12
			c-6.528,15.224-9.84,31.352-9.84,47.92c0,15.032,3.768,29.64,10.896,42.712c-5.736,1.672-11.048,4.432-15.768,8.224l-0.856-2.152
			C219.456,239.08,216,221.16,216,202.832c0-16.32,3.856-32.664,11.16-47.256c8.392-16.8,12.84-35.624,12.84-54.408V48h-16v53.168
			c0,16.32-3.856,32.664-11.16,47.256c-8.392,16.8-12.84,35.624-12.84,54.408c0,20.368,3.832,40.288,11.408,59.208l1.952,4.88
			c-8.984-11.8-22.864-18.92-38.104-18.92c-5.768,0-11.44,1.032-16.864,3.056l-51.256,19.224l-9.384-14.072
			C94.328,251.072,88.6,248,82.424,248C72.264,248,64,256.264,64,266.424V296c0,13.232,10.768,24,24,24v16c0,8.824,7.176,16,16,16
			h12.048c16.136,20.656,35.864,37.736,58.712,50.792l10.504,6C198.432,418.312,214.544,424,232,424
			c32.84,0,65.104-8.936,93.272-25.832L363.88,375c3.992,0.616,8.04,1,12.12,1c44.112,0,80-35.888,80-80s-35.888-80-80-80
			c-17.824,0-35.08,5.984-49.12,16.944c-2.288-0.632-4.584-0.944-6.88-0.944c-13.736,0-25.832,10.464-33.184,28.144
			c-7.104-6.504-16.2-10.672-26.24-11.712l-0.232-0.344c-8.08-12.104-12.344-26.2-12.344-40.76c0-14.392,2.872-28.4,8.536-41.616
			l5.624-13.12c6.528-15.224,9.84-31.352,9.84-47.92V16h16v40c0,52.936,43.064,96,96,96c52.936,0,96,43.064,96,96
			C480,375.92,375.92,480,248,480z M314.104,306.456c-6.848-4.56-11.552-11.84-12.912-19.968c-0.568-3.44-1.624-6.664-2.88-9.768
			l0.488-2.624C303.04,258.488,311.56,248,320,248c1.592,0,3.224,0.416,4.992,1.256l4.776,2.28l3.976-3.504
			C345.464,237.696,360.472,232,376,232c35.288,0,64,28.712,64,64c0,35.288-28.712,64-64,64c-15.528,0-30.536-5.696-42.256-16.04
			l-10.592,12c6.024,5.312,12.776,9.584,19.952,12.848l-26.064,15.64C291.352,399.848,261.944,408,232,408
			c-35.288,0-64-28.712-64-64c0-6.888,2.96-13.448,8.128-18l-10.576-12c-2.048,1.808-3.872,3.816-5.488,5.96
			c-8.024-9.856-20.104-15.96-33.36-15.96H88c-4.416,0-8-3.584-8-8v-29.576c0-2.152,3.24-3.144,4.44-1.344l16.432,24.64
			l63.144-23.68c3.608-1.352,7.4-2.04,11.24-2.04c12.208,0,23.184,6.792,28.648,17.712C213.248,300.392,232.032,312,252.92,312H264
			v-16h-11.08c-11.216,0-21.56-4.744-28.8-12.808l10.384-10.384c5.68-5.68,13.224-8.808,21.256-8.808
			c14.752,0,27.224,10.56,29.648,25.12c2.088,12.472,9.304,23.64,19.824,30.648l10.336,6.888l8.872-13.312L314.104,306.456z
			 M156.672,370.672c-11.216-9.264-21.432-19.68-30.272-31.472L124,336h-20v-16h22.704c11.68,0,22.008,7.448,25.712,18.528h0.008
			C152.176,340.336,152,342.152,152,344C152,353.36,153.704,362.312,156.672,370.672z"/>
	</g>
</g>
<g>
	<g>
		<rect x="360" y="400" width="16" height="16"/>
	</g>
</g>
<g>
	<g>
		<rect x="424" y="200" width="16" height="16"/>
	</g>
</g>
<g>
	<g>
		<rect x="296" y="176" width="16" height="16"/>
	</g>
</g>
<g>
	<g>
		<rect x="144" y="216" width="16" height="16"/>
	</g>
</g>
<g>
	<g>
		<rect x="96" y="376" width="16" height="16"/>
	</g>
</g>
<g>
	<g>
		<rect x="240" y="448" width="16" height="16"/>
	</g>
</g>
<g>
	<g>
		<rect x="48" y="200" width="16" height="16"/>
	</g>
</g>
<g>
</g>
<g>
</g>
<g>
</g>
<g>
</g>
<g>
</g>
<g>
</g>
<g>
</g>
<g>
</g>
<g>
</g>
<g>
</g>
<g>
</g>
<g>
</g>
<g>
</g>
<g>
</g>
<g>
</g>
</svg>
