<svg preserveAspectRatio="xMidYMid meet" id="comp-jx8uqxb4svgcontent" data-bbox="20 20 160 160" xmlns="http://www.w3.org/2000/svg" width="35" height="35" viewBox="20 20 160 160" data-type="color" role="img" aria-labelledby="comp-jx8uqxb4-svgtitle"><title id="comp-jx8uqxb4-svgtitle">Oriental graphic element</title>
    <g>
        <path fill="#2E5252" d="M71.663 128.338c-5.094 25.657-5.28 39.464-.557 41.42S85.46 161.82 100 140.076c14.54 21.744 24.172 31.638 28.895 29.682s4.537-15.763-.557-41.42c25.657 5.094 39.464 5.28 41.42.557 1.956-4.723-7.938-14.355-29.682-28.895 21.745-14.54 31.639-24.172 29.682-28.895-1.956-4.723-15.763-4.537-41.42.557 5.095-25.657 5.28-39.464.557-41.42-4.723-1.956-14.355 7.938-28.895 29.683C85.46 38.18 75.828 28.286 71.105 30.242c-4.723 1.956-4.537 15.763.557 41.42-25.657-5.094-39.464-5.28-41.42-.557C28.286 75.828 38.18 85.46 59.925 100c-21.745 14.54-31.639 24.172-29.682 28.895 1.955 4.723 15.762 4.537 41.42-.557zm-8.958-24.183L68.921 100l-6.216-4.155c-20.938-13.999-26.06-20.356-27.31-22.607 2.48-.708 10.601-1.572 35.293 3.325l7.334 1.46-1.46-7.334c-4.897-24.695-4.028-32.812-3.325-35.295 2.256 1.255 8.608 6.382 22.607 27.312L100 68.921l4.155-6.216c13.999-20.93 20.352-26.057 22.607-27.312.703 2.483 1.572 10.601-3.325 35.295l-1.46 7.334 7.334-1.46c24.683-4.902 32.822-4.033 35.293-3.325-1.25 2.251-6.372 8.608-27.31 22.607L131.079 100l6.216 4.155c20.938 13.999 26.06 20.356 27.31 22.607-2.485.703-10.601 1.567-35.293-3.325l-7.334-1.46 1.46 7.334c4.902 24.697 4.028 32.812 3.325 35.293-2.251-1.25-8.608-6.372-22.607-27.31L100 131.079l-4.155 6.216c-13.999 20.938-20.356 26.06-22.607 27.31-.703-2.48-1.577-10.596 3.325-35.293l1.46-7.334-7.334 1.46c-24.688 4.897-32.822 4.028-35.293 3.325 1.25-2.251 6.372-8.609 27.309-22.608z" data-color="1"></path>
        <path fill="#2E5252" d="M100 180c44.183 0 80-35.817 80-80s-35.817-80-80-80-80 35.817-80 80 35.817 80 80 80zm0-155c41.357 0 75 33.643 75 75s-33.643 75-75 75-75-33.643-75-75 33.643-75 75-75z" data-color="1"></path>
        <path fill="#2E5252" d="M100 115c8.284 0 15-6.716 15-15s-6.716-15-15-15-15 6.716-15 15 6.716 15 15 15zm0-25c5.513 0 10 4.487 10 10s-4.487 10-10 10-10-4.487-10-10 4.487-10 10-10z" data-color="1"></path>
    </g>
</svg>