<svg preserveAspectRatio="xMidYMid meet" id="comp-jx8usf20svgcontent" data-bbox="20 20 160 160" xmlns="http://www.w3.org/2000/svg" width="35" height="35" viewBox="20 20 160 160" data-type="color" role="img" aria-labelledby="comp-jx8usf20-svgtitle"><title id="comp-jx8usf20-svgtitle">Oriental graphic element</title>
    <g>
        <path fill="#2E5252" d="M179.789 20.211c-26.738-1.407-46.439 4.222-59.104 16.887s-18.294 32.367-16.887 59.105c26.738 1.407 46.439-4.222 59.104-16.887 12.665-12.666 18.294-32.367 16.887-59.105zm-70.215 70.216c-.327-22.098 4.822-38.601 15.334-49.108 10.512-10.512 27.129-15.757 49.105-15.331.327 22.095-4.822 38.598-15.334 49.105-10.513 10.509-26.914 15.614-49.105 15.334z" data-color="1"></path>
        <path fill="#2E5252" d="M20.211 179.789c26.738 1.407 46.439-4.222 59.104-16.887s18.294-32.367 16.887-59.105c-26.738-1.407-46.439 4.222-59.104 16.887-12.665 12.666-18.294 32.367-16.887 59.105zm70.215-70.214c.327 22.092-4.822 38.592-15.331 49.105-10.512 10.512-26.978 15.818-49.108 15.334-.327-22.092 4.822-38.598 15.331-49.108 10.51-10.507 26.987-15.699 49.108-15.331z" data-color="1"></path>
        <path fill="#2E5252" d="M179.789 179.789c1.407-26.738-4.222-46.439-16.887-59.105-12.665-12.665-32.367-18.294-59.104-16.887-1.407 26.738 4.222 46.439 16.887 59.105 12.665 12.665 32.366 18.294 59.104 16.887zm-70.215-70.217c22.092-.286 38.598 4.825 49.105 15.334 10.512 10.507 15.661 27.01 15.334 49.108-22.173.356-38.598-4.828-49.105-15.334-10.512-10.507-15.661-27.011-15.334-49.108z" data-color="1"></path>
        <path fill="#2E5252" d="M37.098 79.316C49.763 91.981 69.465 97.61 96.203 96.203c1.407-26.738-4.222-46.439-16.887-59.105C66.65 24.433 46.949 18.804 20.211 20.211c-1.407 26.738 4.222 46.439 16.887 59.105zM75.095 41.32c10.51 10.51 15.658 27.013 15.331 49.108-22.168.289-38.595-4.825-49.108-15.334-10.51-10.51-15.658-27.013-15.331-49.108 22.165-.348 38.598 4.824 49.108 15.334z" data-color="1"></path>
        <path fill="#2E5252" d="M100.6 46.866c-29.677 0-53.734 24.058-53.734 53.734 0 29.677 24.057 53.734 53.734 53.734 29.676 0 53.734-24.057 53.734-53.734 0-29.676-24.058-53.734-53.734-53.734zm.001 101.499c-26.336 0-47.764-21.427-47.764-47.764s21.427-47.764 47.764-47.764 47.764 21.427 47.764 47.764-21.428 47.764-47.764 47.764z" data-color="1"></path>
    </g>
</svg>