<svg preserveAspectRatio="xMidYMid meet" id="comp-jx8uu0oisvgcontent" data-bbox="20 19.945 160 160.11" xmlns="http://www.w3.org/2000/svg" width="35" height="35" viewBox="20 19.945 160 160.11" data-type="color" role="img" aria-labelledby="comp-jx8uu0oi-svgtitle"><title id="comp-jx8uu0oi-svgtitle">Oriental graphic element</title>
    <g>
        <path fill="#2E5252" d="M179.958 100.464a2.46 2.46 0 0 0 .042-.477 2.46 2.46 0 0 0-.042-.477 2.483 2.483 0 0 0-.136-.448 2.42 2.42 0 0 0-.239-.456c-.045-.067-.058-.146-.11-.21-.056-.07-.137-.103-.199-.166-.064-.065-.098-.148-.17-.206-14.582-11.82-27.795-17.057-39.321-15.542-9.117 1.195-17.22 6.583-24.083 16.017-.022.031-.025.068-.045.099-.102.154-.159.32-.225.49-.054.14-.124.272-.151.417-.032.162-.018.323-.018.488.001.159-.014.313.016.469.029.154.102.295.161.444.063.159.115.316.21.46.022.034.025.074.049.107 6.865 9.434 14.97 14.827 24.087 16.022 1.289.169 2.597.254 3.929.254 10.554 0 22.438-5.303 35.39-15.801.073-.059.107-.143.171-.208.062-.062.142-.094.198-.164.052-.064.065-.143.11-.21a2.39 2.39 0 0 0 .239-.456c.06-.147.107-.291.137-.446zm-39.517 12.026c-7.205-.943-13.748-5.174-19.495-12.504 5.747-7.324 12.292-11.554 19.493-12.501 9.419-1.233 20.504 3.018 32.92 12.502-12.422 9.486-23.531 13.718-32.918 12.503z" data-color="1"></path>
        <path fill="#2E5252" d="M117.563 139.8c-1.195-9.114-6.585-17.217-16.022-24.083-.031-.023-.069-.025-.1-.046-.15-.1-.313-.155-.479-.22-.143-.056-.278-.127-.426-.155-.159-.031-.317-.017-.479-.017-.162 0-.32-.014-.479.017-.147.028-.281.099-.423.154-.167.065-.331.121-.483.221-.031.021-.069.023-.099.045-9.437 6.865-14.827 14.968-16.022 24.083-1.508 11.51 3.722 24.737 15.547 39.324.05.061.124.083.177.139.071.074.111.167.192.233.112.09.243.134.365.202.09.051.171.108.265.147.31.128.631.211.958.211l.002-.001.002.001c.327 0 .648-.083.958-.211.094-.039.175-.096.265-.147.122-.068.253-.112.365-.202.081-.066.121-.159.192-.233.054-.055.128-.077.177-.139 11.825-14.586 17.055-27.813 15.547-39.323zm-30.009.659c.946-7.207 5.176-13.751 12.502-19.494 7.326 5.743 11.557 12.287 12.502 19.494 1.235 9.431-3.016 20.507-12.502 32.923-9.485-12.416-13.737-23.492-12.502-32.923z" data-color="1"></path>
        <path fill="#2E5252" d="M84.723 100.449c.03-.156.016-.31.016-.469 0-.165.014-.326-.018-.488-.028-.145-.097-.277-.151-.417-.066-.169-.123-.336-.225-.49-.021-.031-.023-.068-.045-.099-6.863-9.434-14.966-14.822-24.083-16.017-11.51-1.506-24.737 3.722-39.321 15.542-.073.059-.107.143-.172.209-.062.062-.141.094-.198.163-.052.064-.065.143-.11.21a2.39 2.39 0 0 0-.239.456 2.483 2.483 0 0 0-.136.448c-.03.159-.041.313-.041.476 0 .163.011.317.042.477.03.155.077.299.136.448.064.161.141.309.239.456.045.067.058.146.11.21.056.069.136.102.198.164.064.065.099.149.171.208 12.952 10.498 24.833 15.801 35.39 15.801 1.329 0 2.642-.085 3.929-.254 9.117-1.195 17.222-6.588 24.087-16.022.024-.033.027-.073.049-.107.095-.145.147-.301.21-.46.06-.15.132-.291.162-.445zm-25.164 12.027c-9.409 1.237-20.501-3.014-32.919-12.503 12.412-9.487 23.48-13.752 32.921-12.502 7.201.948 13.746 5.177 19.493 12.501-5.747 7.33-12.29 11.561-19.495 12.504z" data-color="1"></path>
        <path fill="#2E5252" d="M101.903 20.839c-.057-.071-.139-.104-.202-.166-.063-.064-.096-.145-.168-.203-.065-.053-.145-.066-.214-.111a2.382 2.382 0 0 0-.453-.236 2.497 2.497 0 0 0-.447-.136 2.46 2.46 0 0 0-.477-.042c-.163 0-.317.011-.476.041-.155.03-.3.078-.449.137a2.5 2.5 0 0 0-.45.234c-.069.045-.149.059-.215.112-.071.058-.105.14-.168.204-.063.063-.144.096-.201.166C86.159 35.426 80.929 48.655 82.437 60.16c1.195 9.114 6.585 17.222 16.022 24.087.05.036.114.021.165.054.4.251.838.419 1.305.423.004 0 .008.004.012.004l.002-.001.002.001c.004 0 .008-.004.012-.004.467-.003.905-.172 1.306-.423.051-.032.115-.017.164-.053 9.437-6.865 14.827-14.973 16.022-24.087 1.509-11.506-3.721-24.735-15.546-39.322zm10.543 38.663C111.5 66.709 107.27 73.253 99.944 79c-7.326-5.747-11.557-12.291-12.502-19.498-1.235-9.427 3.016-20.505 12.502-32.921 9.485 12.416 13.737 23.494 12.502 32.921z" data-color="1"></path>
    </g>
</svg>