<svg xmlns="http://www.w3.org/2000/svg" xmlns:xlink="http://www.w3.org/1999/xlink" viewBox="0 0 636 300"><defs><clipPath id="a"><path d="M237.519,58.451v180.9c0,7.941,40.571,14.378,90.617,14.378s90.618-6.437,90.618-14.378V58.451Z" fill="none"/></clipPath><clipPath id="b"><path d="M190.624,97.342V252.625c0,6.817,34.825,12.342,77.786,12.342s77.786-5.525,77.786-12.342V97.342Z" fill="none"/></clipPath></defs><title>swimlane-seamless-data-integration</title><g clip-path="url(#a)"><path d="M237.519,58.451v180.9c0,7.941,40.571,14.378,90.617,14.378s90.618-6.437,90.618-14.378V58.451Z" fill="#b5d5ea"/><path d="M283.379,58.451h-45.86v180.9c0,5.357,18.478,10.026,45.86,12.5Z" fill="#939393"/><path d="M283.379,58.451h-45.86v180.9c0,5.357,18.478,10.026,45.86,12.5Z" fill="#8fc6e5"/><path d="M235.056,202.783c0,8.156,41.674,14.768,93.08,14.768s93.08-6.612,93.08-14.768" fill="none" stroke="#9ccbe7" stroke-miterlimit="10" stroke-width="2"/><path d="M235.056,166.474c0,8.157,41.674,14.769,93.08,14.769s93.08-6.612,93.08-14.769" fill="none" stroke="#9ccbe7" stroke-miterlimit="10" stroke-width="2"/><path d="M235.056,130.166c0,8.157,41.674,14.768,93.08,14.768s93.08-6.611,93.08-14.768" fill="none" stroke="#9ccbe7" stroke-miterlimit="10" stroke-width="2"/><path d="M235.056,93.858c0,8.156,41.674,14.768,93.08,14.768s93.08-6.612,93.08-14.768" fill="none" stroke="#9ccbe7" stroke-miterlimit="10" stroke-width="2"/></g><path d="M248.985,61.474S241.752,46.25,328.864,46.25s79.564,12.664,79.564,12.664-19.812,10.1-72.331,10.1S248.985,61.474,248.985,61.474Z" fill="#69afe5"/><ellipse cx="328.136" cy="62.209" rx="71.226" ry="9.266" fill="#8fc6e5"/><path d="M328.136,44.074c-50.046,0-90.617,6.437-90.617,14.377s40.571,14.378,90.617,14.378,90.618-6.437,90.618-14.378S378.182,44.074,328.136,44.074Zm0,22.365c-39.337,0-71.226-4.148-71.226-9.266s31.889-9.265,71.226-9.265,71.226,4.148,71.226,9.265S367.473,66.439,328.136,66.439Z" fill="#daeaf4"/><g clip-path="url(#b)"><path d="M190.624,97.342V252.625c0,6.817,34.825,12.342,77.786,12.342s77.786-5.525,77.786-12.342V97.342Z" fill="#c5c5c5"/><path d="M229.99,97.342H190.624V252.625c0,4.6,15.861,8.607,39.366,10.73Z" fill="#939393"/><path d="M229.99,97.342H190.624V252.625c0,4.6,15.861,8.607,39.366,10.73Z" fill="#b2b2b2"/><path d="M188.51,221.236c0,7,35.772,12.677,79.9,12.677s79.9-5.675,79.9-12.677" fill="none" stroke="#d2d2d2" stroke-miterlimit="10" stroke-width="2"/><path d="M188.51,190.069c0,7,35.772,12.677,79.9,12.677s79.9-5.676,79.9-12.677" fill="none" stroke="#d2d2d2" stroke-miterlimit="10" stroke-width="2"/><path d="M188.51,158.9c0,7,35.772,12.677,79.9,12.677s79.9-5.676,79.9-12.677" fill="none" stroke="#d2d2d2" stroke-miterlimit="10" stroke-width="2"/><path d="M188.51,127.735c0,7,35.772,12.677,79.9,12.677s79.9-5.676,79.9-12.677" fill="none" stroke="#d2d2d2" stroke-miterlimit="10" stroke-width="2"/></g><path d="M200.466,99.936s-6.209-13.068,68.568-13.068,68.3,10.871,68.3,10.871-17.008,8.673-62.09,8.673S200.466,99.936,200.466,99.936Z" fill="#737373"/><ellipse cx="268.41" cy="100.567" rx="61.14" ry="7.954" fill="#939393"/><path d="M268.41,85c-42.961,0-77.786,5.526-77.786,12.342s34.825,12.342,77.786,12.342S346.2,104.158,346.2,97.342,311.369,85,268.41,85Zm0,19.2c-33.767,0-61.141-3.561-61.141-7.953s27.374-7.954,61.141-7.954,61.14,3.561,61.14,7.954S302.177,104.2,268.41,104.2Z" fill="#e6e6e6"/><path d="M311.3,248.6c-5.615.731-12.063,1.337-19.257,1.646v8.109c4.653-.377,12.251-1.069,19.257-1.859Z" fill="#b2b2b2"/><path d="M315.677,247.982v8c4.054-.506,7.6-1.033,9.814-1.53,2.592-.583,4.7-1.084,6.38-1.5v-8.207C328.277,245.67,322.788,246.9,315.677,247.982Z" fill="#b2b2b2"/><path d="M309.812,248.788v6.521c-6.306.712-13.083,1.342-17.769,1.736v1.312c4.653-.377,12.251-1.069,19.257-1.859v-7.9C310.813,248.666,310.312,248.727,309.812,248.788Z" fill="#999"/><path d="M330.383,245.118v6.646c-1.677.412-3.788.914-6.38,1.5-1.937.436-4.9.894-8.326,1.341v1.378c4.054-.506,7.6-1.033,9.814-1.53,2.592-.583,4.7-1.084,6.38-1.5v-8.206C331.407,244.865,330.909,244.99,330.383,245.118Z" fill="#999"/><path d="M429.491,160.612a9.661,9.661,0,1,0,5.573-12.475,9.664,9.664,0,0,0-5.573,12.475" fill="#4393d4"/><path d="M177.573,176.978a34.086,34.086,0,1,0,19.657-44.014,34.086,34.086,0,0,0-19.657,44.014" fill="#4393d4"/><path d="M354.453,240.793a32.9,32.9,0,1,0,18.972-42.48,32.9,32.9,0,0,0-18.972,42.48" fill="#4393d4"/><path d="M263.46,210.691a40.687,40.687,0,1,0,23.464-52.539,40.687,40.687,0,0,0-23.464,52.539" fill="#4393d4"/><path d="M126.8,125.94a24.621,24.621,0,1,1,31.793,14.2,24.621,24.621,0,0,1-31.793-14.2" fill="#4393d4"/><path d="M91.072,81.817a20.641,20.641,0,1,0,11.9-26.653,20.64,20.64,0,0,0-11.9,26.653" fill="#4393d4"/><path d="M166.268,41.164a14.319,14.319,0,1,0,8.257-18.49,14.319,14.319,0,0,0-8.257,18.49" fill="#4393d4"/><path d="M110.039,33.505a17.313,17.313,0,1,0,9.984-22.357,17.312,17.312,0,0,0-9.984,22.357" fill="#4393d4"/><path d="M208.528,59.894A10.708,10.708,0,1,0,214.7,46.067a10.708,10.708,0,0,0-6.176,13.827" fill="#4393d4"/><path d="M483.253,214.263a17.23,17.23,0,1,0,9.937-22.25,17.229,17.229,0,0,0-9.937,22.25" fill="#4393d4"/><path d="M460.815,178.757a12.731,12.731,0,1,0,7.343-16.44,12.732,12.732,0,0,0-7.343,16.44" fill="#4393d4"/><path d="M434.7,257.956a24.621,24.621,0,1,1,31.792,14.2,24.62,24.62,0,0,1-31.792-14.2" fill="#4393d4"/><path d="M227.721,179.553,189.6,179.38a2.674,2.674,0,0,1-2.663-2.685l.107-23.615a2.673,2.673,0,0,1,2.687-2.661l38.126.172a2.672,2.672,0,0,1,2.661,2.685l-.107,23.616a2.672,2.672,0,0,1-2.685,2.661" fill="#09538f"/><path d="M228.2,148.744l-38.811-.176a2.333,2.333,0,0,0-2.341,2.323l-.015,3.213,43.475.2.014-3.212a2.333,2.333,0,0,0-2.322-2.344" fill="#fff"/><polygon points="193.634 167.359 202.688 171.934 202.688 169.806 196.716 166.869 202.688 163.542 202.688 161.405 193.634 166.483 193.634 167.359" fill="#edac28"/><polygon points="203.905 175.375 205.986 175.375 213.101 158.273 210.989 158.273 203.905 175.375" fill="#edac28"/><polygon points="214.451 161.405 214.451 163.542 220.447 166.874 214.451 169.805 214.451 171.934 223.505 167.359 223.505 166.483 214.451 161.405" fill="#edac28"/><path d="M153.364,101.2H137.641a.573.573,0,0,0-.573.574V132a.573.573,0,0,0,.573.573h23.932a.573.573,0,0,0,.573-.572l.067-22.03Z" fill="#fff"/><path d="M162.146,109.794l-8.606-8.6h-.014v8.055a.571.571,0,0,0,.571.572h8.049Z" fill="#edac28"/><rect x="140.986" y="113.746" width="17.242" height="1.568" fill="#edac28"/><rect x="140.986" y="117.667" width="17.242" height="1.569" fill="#edac28"/><rect x="140.986" y="121.589" width="17.242" height="1.569" fill="#edac28"/><path d="M407.2,217.161l-44.015-.045-.024,25.083a4.472,4.472,0,0,0,4.469,4.478l35.065.037a4.475,4.475,0,0,0,4.478-4.47Z" fill="#fff"/><rect x="381.976" y="191.997" width="6.047" height="44.006" transform="translate(170.588 598.771) rotate(-89.939)" fill="#09538f"/><rect x="367.612" y="234.36" width="8.104" height="4.145" transform="translate(134.858 607.858) rotate(-89.942)" fill="#edac28"/><rect x="378.52" y="236.277" width="4.29" height="4.144" transform="translate(141.864 618.73) rotate(-89.932)" fill="#edac28"/><rect x="381.808" y="230.565" width="15.733" height="4.144" transform="translate(156.574 622.034) rotate(-89.932)" fill="#edac28"/><rect x="388.906" y="228.667" width="19.547" height="4.144" transform="translate(167.467 629.143) rotate(-89.932)" fill="#edac28"/><path d="M300.934,196.138l-23.047-7.561a23.767,23.767,0,0,1,23.047-16.638Z" fill="#fff"/><path d="M300.934,196.138l-14.27,19.555a23.047,23.047,0,0,1-8.777-12.107Z" fill="#e6e6e6"/><path d="M300.934,196.138l22.934,7.448a24.346,24.346,0,0,1-30.53,15.594,21.6,21.6,0,0,1-6.674-3.492Z" fill="#edac28"/><path d="M300.934,196.138v-24.2a24.127,24.127,0,0,1,24.1,24.2,23.128,23.128,0,0,1-1.168,7.448Z" fill="#09538f"/></svg>